<mxfile host="Electron" modified="2024-04-06T14:30:11.302Z" agent="Mozilla/5.0 (Windows NT 10.0; Win64; x64) AppleWebKit/537.36 (KHTML, like Gecko) draw.io/21.7.5 Chrome/114.0.5735.289 Electron/25.8.1 Safari/537.36" etag="QGERajWu64AFgCzWrqPb" version="21.7.5" type="device">
  <diagram id="C5RBs43oDa-KdzZeNtuy" name="Page-1">
    <mxGraphModel dx="803" dy="548" grid="1" gridSize="10" guides="1" tooltips="1" connect="1" arrows="1" fold="1" page="1" pageScale="1" pageWidth="827" pageHeight="1169" math="0" shadow="0">
      <root>
        <mxCell id="WIyWlLk6GJQsqaUBKTNV-0" />
        <mxCell id="WIyWlLk6GJQsqaUBKTNV-1" parent="WIyWlLk6GJQsqaUBKTNV-0" />
        <mxCell id="zutfIISSjvKdF1jtKu1k-3" value="" style="group" vertex="1" connectable="0" parent="WIyWlLk6GJQsqaUBKTNV-1">
          <mxGeometry x="490" y="165" width="50" height="50" as="geometry" />
        </mxCell>
        <mxCell id="zutfIISSjvKdF1jtKu1k-1" value="" style="ellipse;whiteSpace=wrap;html=1;aspect=fixed;" vertex="1" parent="zutfIISSjvKdF1jtKu1k-3">
          <mxGeometry width="50" height="50" as="geometry" />
        </mxCell>
        <mxCell id="zutfIISSjvKdF1jtKu1k-2" value="" style="ellipse;whiteSpace=wrap;html=1;aspect=fixed;fillStyle=solid;fillColor=#000000;" vertex="1" parent="zutfIISSjvKdF1jtKu1k-3">
          <mxGeometry x="10" y="10" width="30" height="30" as="geometry" />
        </mxCell>
        <mxCell id="zutfIISSjvKdF1jtKu1k-9" style="edgeStyle=orthogonalEdgeStyle;rounded=0;orthogonalLoop=1;jettySize=auto;html=1;exitX=0.5;exitY=1;exitDx=0;exitDy=0;entryX=0.5;entryY=0;entryDx=0;entryDy=0;" edge="1" parent="WIyWlLk6GJQsqaUBKTNV-1" source="zutfIISSjvKdF1jtKu1k-5" target="zutfIISSjvKdF1jtKu1k-8">
          <mxGeometry relative="1" as="geometry" />
        </mxCell>
        <mxCell id="zutfIISSjvKdF1jtKu1k-10" value="收到传输信息请求" style="edgeLabel;html=1;align=center;verticalAlign=middle;resizable=0;points=[];" vertex="1" connectable="0" parent="zutfIISSjvKdF1jtKu1k-9">
          <mxGeometry x="0.1074" y="3" relative="1" as="geometry">
            <mxPoint as="offset" />
          </mxGeometry>
        </mxCell>
        <mxCell id="zutfIISSjvKdF1jtKu1k-25" style="edgeStyle=orthogonalEdgeStyle;rounded=0;orthogonalLoop=1;jettySize=auto;html=1;exitX=0;exitY=0.5;exitDx=0;exitDy=0;entryX=1;entryY=0.5;entryDx=0;entryDy=0;" edge="1" parent="WIyWlLk6GJQsqaUBKTNV-1" source="zutfIISSjvKdF1jtKu1k-5" target="zutfIISSjvKdF1jtKu1k-1">
          <mxGeometry relative="1" as="geometry" />
        </mxCell>
        <mxCell id="zutfIISSjvKdF1jtKu1k-26" value="退出" style="edgeLabel;html=1;align=center;verticalAlign=middle;resizable=0;points=[];" vertex="1" connectable="0" parent="zutfIISSjvKdF1jtKu1k-25">
          <mxGeometry x="0.0529" y="1" relative="1" as="geometry">
            <mxPoint y="-1" as="offset" />
          </mxGeometry>
        </mxCell>
        <mxCell id="zutfIISSjvKdF1jtKu1k-5" value="空闲" style="rounded=1;whiteSpace=wrap;html=1;" vertex="1" parent="WIyWlLk6GJQsqaUBKTNV-1">
          <mxGeometry x="580" y="160" width="120" height="60" as="geometry" />
        </mxCell>
        <mxCell id="zutfIISSjvKdF1jtKu1k-11" style="edgeStyle=orthogonalEdgeStyle;rounded=0;orthogonalLoop=1;jettySize=auto;html=1;exitX=0.5;exitY=1;exitDx=0;exitDy=0;entryX=0.5;entryY=0;entryDx=0;entryDy=0;" edge="1" parent="WIyWlLk6GJQsqaUBKTNV-1" source="zutfIISSjvKdF1jtKu1k-8" target="zutfIISSjvKdF1jtKu1k-13">
          <mxGeometry relative="1" as="geometry">
            <mxPoint x="640" y="497" as="targetPoint" />
          </mxGeometry>
        </mxCell>
        <mxCell id="zutfIISSjvKdF1jtKu1k-12" value="信息全部传输完成" style="edgeLabel;html=1;align=center;verticalAlign=middle;resizable=0;points=[];" vertex="1" connectable="0" parent="zutfIISSjvKdF1jtKu1k-11">
          <mxGeometry x="0.0045" relative="1" as="geometry">
            <mxPoint x="1" as="offset" />
          </mxGeometry>
        </mxCell>
        <mxCell id="zutfIISSjvKdF1jtKu1k-8" value="接受消息中" style="rounded=1;whiteSpace=wrap;html=1;" vertex="1" parent="WIyWlLk6GJQsqaUBKTNV-1">
          <mxGeometry x="580" y="327" width="120" height="60" as="geometry" />
        </mxCell>
        <mxCell id="zutfIISSjvKdF1jtKu1k-15" style="edgeStyle=orthogonalEdgeStyle;rounded=0;orthogonalLoop=1;jettySize=auto;html=1;exitX=0.5;exitY=1;exitDx=0;exitDy=0;" edge="1" parent="WIyWlLk6GJQsqaUBKTNV-1" source="zutfIISSjvKdF1jtKu1k-13">
          <mxGeometry relative="1" as="geometry">
            <mxPoint x="640" y="640" as="targetPoint" />
          </mxGeometry>
        </mxCell>
        <mxCell id="zutfIISSjvKdF1jtKu1k-16" value="存储完成" style="edgeLabel;html=1;align=center;verticalAlign=middle;resizable=0;points=[];" vertex="1" connectable="0" parent="zutfIISSjvKdF1jtKu1k-15">
          <mxGeometry x="0.0402" relative="1" as="geometry">
            <mxPoint as="offset" />
          </mxGeometry>
        </mxCell>
        <mxCell id="zutfIISSjvKdF1jtKu1k-13" value="存储副本到数据库中" style="rounded=1;whiteSpace=wrap;html=1;" vertex="1" parent="WIyWlLk6GJQsqaUBKTNV-1">
          <mxGeometry x="580" y="490" width="120" height="60" as="geometry" />
        </mxCell>
        <mxCell id="zutfIISSjvKdF1jtKu1k-18" style="edgeStyle=orthogonalEdgeStyle;rounded=0;orthogonalLoop=1;jettySize=auto;html=1;exitX=0.5;exitY=1;exitDx=0;exitDy=0;entryX=1;entryY=0.5;entryDx=0;entryDy=0;" edge="1" parent="WIyWlLk6GJQsqaUBKTNV-1" source="zutfIISSjvKdF1jtKu1k-17" target="zutfIISSjvKdF1jtKu1k-5">
          <mxGeometry relative="1" as="geometry">
            <Array as="points">
              <mxPoint x="640" y="720" />
              <mxPoint x="720" y="720" />
              <mxPoint x="720" y="190" />
            </Array>
          </mxGeometry>
        </mxCell>
        <mxCell id="zutfIISSjvKdF1jtKu1k-17" value="转发到目标用户中" style="rounded=1;whiteSpace=wrap;html=1;" vertex="1" parent="WIyWlLk6GJQsqaUBKTNV-1">
          <mxGeometry x="580" y="640" width="120" height="60" as="geometry" />
        </mxCell>
        <mxCell id="zutfIISSjvKdF1jtKu1k-23" style="edgeStyle=orthogonalEdgeStyle;rounded=0;orthogonalLoop=1;jettySize=auto;html=1;exitX=0.5;exitY=1;exitDx=0;exitDy=0;entryX=0.5;entryY=0;entryDx=0;entryDy=0;" edge="1" parent="WIyWlLk6GJQsqaUBKTNV-1" source="zutfIISSjvKdF1jtKu1k-20" target="zutfIISSjvKdF1jtKu1k-5">
          <mxGeometry relative="1" as="geometry" />
        </mxCell>
        <mxCell id="zutfIISSjvKdF1jtKu1k-24" value="开启新的聊天线程" style="edgeLabel;html=1;align=center;verticalAlign=middle;resizable=0;points=[];" vertex="1" connectable="0" parent="zutfIISSjvKdF1jtKu1k-23">
          <mxGeometry x="-0.1672" relative="1" as="geometry">
            <mxPoint as="offset" />
          </mxGeometry>
        </mxCell>
        <mxCell id="zutfIISSjvKdF1jtKu1k-20" value="" style="ellipse;whiteSpace=wrap;html=1;aspect=fixed;fillStyle=solid;fillColor=#000000;" vertex="1" parent="WIyWlLk6GJQsqaUBKTNV-1">
          <mxGeometry x="625" y="70" width="30" height="30" as="geometry" />
        </mxCell>
        <mxCell id="zutfIISSjvKdF1jtKu1k-27" value="服务器处理线程" style="text;html=1;align=center;verticalAlign=middle;resizable=0;points=[];autosize=1;strokeColor=none;fillColor=none;" vertex="1" parent="WIyWlLk6GJQsqaUBKTNV-1">
          <mxGeometry x="595" y="778" width="110" height="30" as="geometry" />
        </mxCell>
        <mxCell id="zutfIISSjvKdF1jtKu1k-30" style="rounded=0;orthogonalLoop=1;jettySize=auto;html=1;exitX=0.5;exitY=1;exitDx=0;exitDy=0;entryX=0.5;entryY=0;entryDx=0;entryDy=0;" edge="1" parent="WIyWlLk6GJQsqaUBKTNV-1" source="zutfIISSjvKdF1jtKu1k-33" target="zutfIISSjvKdF1jtKu1k-29">
          <mxGeometry relative="1" as="geometry">
            <mxPoint x="269.9999999999998" y="120" as="sourcePoint" />
          </mxGeometry>
        </mxCell>
        <mxCell id="zutfIISSjvKdF1jtKu1k-32" value="选择聊天1" style="edgeLabel;html=1;align=center;verticalAlign=middle;resizable=0;points=[];" vertex="1" connectable="0" parent="zutfIISSjvKdF1jtKu1k-30">
          <mxGeometry x="-0.1501" relative="1" as="geometry">
            <mxPoint as="offset" />
          </mxGeometry>
        </mxCell>
        <mxCell id="zutfIISSjvKdF1jtKu1k-35" style="edgeStyle=orthogonalEdgeStyle;rounded=0;orthogonalLoop=1;jettySize=auto;html=1;exitX=0.5;exitY=1;exitDx=0;exitDy=0;entryX=0.5;entryY=0;entryDx=0;entryDy=0;" edge="1" parent="WIyWlLk6GJQsqaUBKTNV-1" source="zutfIISSjvKdF1jtKu1k-29" target="zutfIISSjvKdF1jtKu1k-34">
          <mxGeometry relative="1" as="geometry" />
        </mxCell>
        <mxCell id="zutfIISSjvKdF1jtKu1k-36" value="侦听到新消息" style="edgeLabel;html=1;align=center;verticalAlign=middle;resizable=0;points=[];" vertex="1" connectable="0" parent="zutfIISSjvKdF1jtKu1k-35">
          <mxGeometry x="-0.0795" y="1" relative="1" as="geometry">
            <mxPoint as="offset" />
          </mxGeometry>
        </mxCell>
        <mxCell id="zutfIISSjvKdF1jtKu1k-44" style="edgeStyle=orthogonalEdgeStyle;rounded=0;orthogonalLoop=1;jettySize=auto;html=1;exitX=1;exitY=0.5;exitDx=0;exitDy=0;entryX=1;entryY=0.5;entryDx=0;entryDy=0;" edge="1" parent="WIyWlLk6GJQsqaUBKTNV-1" source="zutfIISSjvKdF1jtKu1k-29" target="zutfIISSjvKdF1jtKu1k-43">
          <mxGeometry relative="1" as="geometry" />
        </mxCell>
        <mxCell id="zutfIISSjvKdF1jtKu1k-45" value="编辑并发送新消息" style="edgeLabel;html=1;align=center;verticalAlign=middle;resizable=0;points=[];" vertex="1" connectable="0" parent="zutfIISSjvKdF1jtKu1k-44">
          <mxGeometry x="-0.0725" y="4" relative="1" as="geometry">
            <mxPoint x="56" as="offset" />
          </mxGeometry>
        </mxCell>
        <mxCell id="zutfIISSjvKdF1jtKu1k-54" style="rounded=0;orthogonalLoop=1;jettySize=auto;html=1;exitX=0.5;exitY=0;exitDx=0;exitDy=0;entryX=1;entryY=0.5;entryDx=0;entryDy=0;" edge="1" parent="WIyWlLk6GJQsqaUBKTNV-1" source="zutfIISSjvKdF1jtKu1k-29" target="zutfIISSjvKdF1jtKu1k-51">
          <mxGeometry relative="1" as="geometry" />
        </mxCell>
        <mxCell id="zutfIISSjvKdF1jtKu1k-55" value="退出" style="edgeLabel;html=1;align=center;verticalAlign=middle;resizable=0;points=[];" vertex="1" connectable="0" parent="zutfIISSjvKdF1jtKu1k-54">
          <mxGeometry x="0.2706" y="-4" relative="1" as="geometry">
            <mxPoint as="offset" />
          </mxGeometry>
        </mxCell>
        <mxCell id="zutfIISSjvKdF1jtKu1k-29" value="聊天1空闲" style="rounded=1;whiteSpace=wrap;html=1;" vertex="1" parent="WIyWlLk6GJQsqaUBKTNV-1">
          <mxGeometry x="140" y="155" width="120" height="60" as="geometry" />
        </mxCell>
        <mxCell id="zutfIISSjvKdF1jtKu1k-31" value="&lt;font style=&quot;font-size: 28px;&quot;&gt;......&lt;/font&gt;" style="text;html=1;align=center;verticalAlign=middle;resizable=0;points=[];autosize=1;strokeColor=none;fillColor=none;" vertex="1" parent="WIyWlLk6GJQsqaUBKTNV-1">
          <mxGeometry x="280" y="145" width="70" height="50" as="geometry" />
        </mxCell>
        <mxCell id="zutfIISSjvKdF1jtKu1k-33" value="" style="ellipse;whiteSpace=wrap;html=1;aspect=fixed;fillStyle=solid;fillColor=#000000;" vertex="1" parent="WIyWlLk6GJQsqaUBKTNV-1">
          <mxGeometry x="280" y="70" width="30" height="30" as="geometry" />
        </mxCell>
        <mxCell id="zutfIISSjvKdF1jtKu1k-39" style="edgeStyle=orthogonalEdgeStyle;rounded=0;orthogonalLoop=1;jettySize=auto;html=1;exitX=0.5;exitY=1;exitDx=0;exitDy=0;entryX=0.5;entryY=0;entryDx=0;entryDy=0;" edge="1" parent="WIyWlLk6GJQsqaUBKTNV-1" source="zutfIISSjvKdF1jtKu1k-34" target="zutfIISSjvKdF1jtKu1k-38">
          <mxGeometry relative="1" as="geometry" />
        </mxCell>
        <mxCell id="zutfIISSjvKdF1jtKu1k-40" value="接收完毕" style="edgeLabel;html=1;align=center;verticalAlign=middle;resizable=0;points=[];" vertex="1" connectable="0" parent="zutfIISSjvKdF1jtKu1k-39">
          <mxGeometry x="-0.1945" y="-1" relative="1" as="geometry">
            <mxPoint as="offset" />
          </mxGeometry>
        </mxCell>
        <mxCell id="zutfIISSjvKdF1jtKu1k-34" value="接收消息中" style="rounded=1;whiteSpace=wrap;html=1;" vertex="1" parent="WIyWlLk6GJQsqaUBKTNV-1">
          <mxGeometry x="140" y="267" width="120" height="60" as="geometry" />
        </mxCell>
        <mxCell id="zutfIISSjvKdF1jtKu1k-41" style="edgeStyle=orthogonalEdgeStyle;rounded=0;orthogonalLoop=1;jettySize=auto;html=1;exitX=0;exitY=0.5;exitDx=0;exitDy=0;entryX=0;entryY=0.5;entryDx=0;entryDy=0;" edge="1" parent="WIyWlLk6GJQsqaUBKTNV-1" source="zutfIISSjvKdF1jtKu1k-38" target="zutfIISSjvKdF1jtKu1k-29">
          <mxGeometry relative="1" as="geometry" />
        </mxCell>
        <mxCell id="zutfIISSjvKdF1jtKu1k-38" value="显示消息" style="rounded=1;whiteSpace=wrap;html=1;" vertex="1" parent="WIyWlLk6GJQsqaUBKTNV-1">
          <mxGeometry x="140" y="380" width="120" height="60" as="geometry" />
        </mxCell>
        <mxCell id="zutfIISSjvKdF1jtKu1k-47" style="edgeStyle=orthogonalEdgeStyle;rounded=0;orthogonalLoop=1;jettySize=auto;html=1;exitX=0;exitY=0.5;exitDx=0;exitDy=0;entryX=0;entryY=0.25;entryDx=0;entryDy=0;" edge="1" parent="WIyWlLk6GJQsqaUBKTNV-1" source="zutfIISSjvKdF1jtKu1k-43" target="zutfIISSjvKdF1jtKu1k-29">
          <mxGeometry relative="1" as="geometry">
            <Array as="points">
              <mxPoint x="90" y="520" />
              <mxPoint x="90" y="170" />
            </Array>
          </mxGeometry>
        </mxCell>
        <mxCell id="zutfIISSjvKdF1jtKu1k-48" value="发送完毕" style="edgeLabel;html=1;align=center;verticalAlign=middle;resizable=0;points=[];" vertex="1" connectable="0" parent="zutfIISSjvKdF1jtKu1k-47">
          <mxGeometry x="-0.1558" relative="1" as="geometry">
            <mxPoint y="-41" as="offset" />
          </mxGeometry>
        </mxCell>
        <mxCell id="zutfIISSjvKdF1jtKu1k-43" value="发送消息中" style="rounded=1;whiteSpace=wrap;html=1;" vertex="1" parent="WIyWlLk6GJQsqaUBKTNV-1">
          <mxGeometry x="140" y="490" width="120" height="60" as="geometry" />
        </mxCell>
        <mxCell id="zutfIISSjvKdF1jtKu1k-49" value="客户端处理线程" style="text;html=1;align=center;verticalAlign=middle;resizable=0;points=[];autosize=1;strokeColor=none;fillColor=none;" vertex="1" parent="WIyWlLk6GJQsqaUBKTNV-1">
          <mxGeometry x="145" y="778" width="110" height="30" as="geometry" />
        </mxCell>
        <mxCell id="zutfIISSjvKdF1jtKu1k-50" value="" style="group" vertex="1" connectable="0" parent="WIyWlLk6GJQsqaUBKTNV-1">
          <mxGeometry x="90" y="60" width="50" height="50" as="geometry" />
        </mxCell>
        <mxCell id="zutfIISSjvKdF1jtKu1k-51" value="" style="ellipse;whiteSpace=wrap;html=1;aspect=fixed;" vertex="1" parent="zutfIISSjvKdF1jtKu1k-50">
          <mxGeometry width="50" height="50" as="geometry" />
        </mxCell>
        <mxCell id="zutfIISSjvKdF1jtKu1k-52" value="" style="ellipse;whiteSpace=wrap;html=1;aspect=fixed;fillStyle=solid;fillColor=#000000;" vertex="1" parent="zutfIISSjvKdF1jtKu1k-50">
          <mxGeometry x="10" y="10" width="30" height="30" as="geometry" />
        </mxCell>
      </root>
    </mxGraphModel>
  </diagram>
</mxfile>
